<mxfile host="app.diagrams.net" modified="2022-03-07T06:25:45.269Z" agent="5.0 (Macintosh; Intel Mac OS X 10_15_7) AppleWebKit/537.36 (KHTML, like Gecko) Chrome/99.0.4844.51 Safari/537.36" etag="AMxh46_TTGhu-EwjQ_dm" version="16.6.5" type="gitlab">
  <diagram id="MeyKbQjuN0HHgmAX_Uzu" name="Page-1">
    <mxGraphModel dx="1554" dy="2037" grid="1" gridSize="10" guides="1" tooltips="1" connect="1" arrows="1" fold="1" page="1" pageScale="1" pageWidth="827" pageHeight="1169" math="0" shadow="0">
      <root>
        <mxCell id="0" />
        <mxCell id="1" parent="0" />
        <mxCell id="QfohuroKuZxQN4s_sOXS-2" value="DGAppStartup.Builder" style="swimlane;fontStyle=1;align=center;verticalAlign=top;childLayout=stackLayout;horizontal=1;startSize=26;horizontalStack=0;resizeParent=1;resizeParentMax=0;resizeLast=0;collapsible=1;marginBottom=0;fontColor=default;strokeColor=default;fillColor=default;" parent="1" vertex="1">
          <mxGeometry x="10" y="120" width="310" height="138" as="geometry" />
        </mxCell>
        <mxCell id="QfohuroKuZxQN4s_sOXS-3" value="+ initializers: List&lt;Initializer&gt; " style="text;strokeColor=none;fillColor=none;align=left;verticalAlign=top;spacingLeft=4;spacingRight=4;overflow=hidden;rotatable=0;points=[[0,0.5],[1,0.5]];portConstraint=eastwest;fontColor=default;" parent="QfohuroKuZxQN4s_sOXS-2" vertex="1">
          <mxGeometry y="26" width="310" height="26" as="geometry" />
        </mxCell>
        <mxCell id="QfohuroKuZxQN4s_sOXS-6" value="+ tasks: List&lt;Task&gt;" style="text;strokeColor=none;fillColor=none;align=left;verticalAlign=top;spacingLeft=4;spacingRight=4;overflow=hidden;rotatable=0;points=[[0,0.5],[1,0.5]];portConstraint=eastwest;fontColor=default;" parent="QfohuroKuZxQN4s_sOXS-2" vertex="1">
          <mxGeometry y="52" width="310" height="26" as="geometry" />
        </mxCell>
        <mxCell id="QfohuroKuZxQN4s_sOXS-8" value="+ mExecuteListeners: List&lt;OnProjectExecuteListener&gt;" style="text;strokeColor=none;fillColor=none;align=left;verticalAlign=top;spacingLeft=4;spacingRight=4;overflow=hidden;rotatable=0;points=[[0,0.5],[1,0.5]];portConstraint=eastwest;fontColor=default;" parent="QfohuroKuZxQN4s_sOXS-2" vertex="1">
          <mxGeometry y="78" width="310" height="26" as="geometry" />
        </mxCell>
        <mxCell id="QfohuroKuZxQN4s_sOXS-7" value="+ threadPoolExecutor: ThreadPoolExecutor" style="text;strokeColor=none;fillColor=none;align=left;verticalAlign=top;spacingLeft=4;spacingRight=4;overflow=hidden;rotatable=0;points=[[0,0.5],[1,0.5]];portConstraint=eastwest;fontColor=default;" parent="QfohuroKuZxQN4s_sOXS-2" vertex="1">
          <mxGeometry y="104" width="310" height="26" as="geometry" />
        </mxCell>
        <mxCell id="QfohuroKuZxQN4s_sOXS-4" value="" style="line;strokeWidth=1;fillColor=none;align=left;verticalAlign=middle;spacingTop=-1;spacingLeft=3;spacingRight=3;rotatable=0;labelPosition=right;points=[];portConstraint=eastwest;fontColor=default;" parent="QfohuroKuZxQN4s_sOXS-2" vertex="1">
          <mxGeometry y="130" width="310" height="8" as="geometry" />
        </mxCell>
        <mxCell id="QfohuroKuZxQN4s_sOXS-9" value="Initializer" style="swimlane;fontStyle=1;align=center;verticalAlign=top;childLayout=stackLayout;horizontal=1;startSize=26;horizontalStack=0;resizeParent=1;resizeParentMax=0;resizeLast=0;collapsible=1;marginBottom=0;fontColor=default;strokeColor=default;fillColor=default;" parent="1" vertex="1">
          <mxGeometry x="10" y="300" width="310" height="86" as="geometry" />
        </mxCell>
        <mxCell id="QfohuroKuZxQN4s_sOXS-10" value="+ dependencies: List&lt;Class&lt;? extends Initializer&gt;&gt; " style="text;strokeColor=none;fillColor=none;align=left;verticalAlign=top;spacingLeft=4;spacingRight=4;overflow=hidden;rotatable=0;points=[[0,0.5],[1,0.5]];portConstraint=eastwest;fontColor=default;" parent="QfohuroKuZxQN4s_sOXS-9" vertex="1">
          <mxGeometry y="26" width="310" height="26" as="geometry" />
        </mxCell>
        <mxCell id="QfohuroKuZxQN4s_sOXS-14" value="" style="line;strokeWidth=1;fillColor=none;align=left;verticalAlign=middle;spacingTop=-1;spacingLeft=3;spacingRight=3;rotatable=0;labelPosition=right;points=[];portConstraint=eastwest;fontColor=default;" parent="QfohuroKuZxQN4s_sOXS-9" vertex="1">
          <mxGeometry y="52" width="310" height="8" as="geometry" />
        </mxCell>
        <mxCell id="QfohuroKuZxQN4s_sOXS-20" value="+ method(type): type" style="text;strokeColor=none;fillColor=none;align=left;verticalAlign=top;spacingLeft=4;spacingRight=4;overflow=hidden;rotatable=0;points=[[0,0.5],[1,0.5]];portConstraint=eastwest;fontColor=default;" parent="QfohuroKuZxQN4s_sOXS-9" vertex="1">
          <mxGeometry y="60" width="310" height="26" as="geometry" />
        </mxCell>
        <mxCell id="QfohuroKuZxQN4s_sOXS-25" style="edgeStyle=orthogonalEdgeStyle;rounded=0;orthogonalLoop=1;jettySize=auto;html=1;entryX=0;entryY=0.5;entryDx=0;entryDy=0;fontColor=default;strokeColor=default;labelBackgroundColor=default;" parent="1" source="QfohuroKuZxQN4s_sOXS-21" target="QfohuroKuZxQN4s_sOXS-24" edge="1">
          <mxGeometry relative="1" as="geometry" />
        </mxCell>
        <mxCell id="QfohuroKuZxQN4s_sOXS-29" style="edgeStyle=orthogonalEdgeStyle;rounded=0;orthogonalLoop=1;jettySize=auto;html=1;entryX=0;entryY=0.5;entryDx=0;entryDy=0;fontColor=default;strokeColor=default;labelBackgroundColor=default;" parent="1" source="QfohuroKuZxQN4s_sOXS-21" target="QfohuroKuZxQN4s_sOXS-28" edge="1">
          <mxGeometry relative="1" as="geometry" />
        </mxCell>
        <mxCell id="QfohuroKuZxQN4s_sOXS-21" value="A" style="rounded=0;whiteSpace=wrap;html=1;fontColor=default;strokeColor=default;fillColor=default;labelBackgroundColor=default;" parent="1" vertex="1">
          <mxGeometry x="670" y="-60" width="120" height="60" as="geometry" />
        </mxCell>
        <mxCell id="QfohuroKuZxQN4s_sOXS-27" style="edgeStyle=orthogonalEdgeStyle;rounded=0;orthogonalLoop=1;jettySize=auto;html=1;entryX=0;entryY=0.5;entryDx=0;entryDy=0;fontColor=default;strokeColor=default;labelBackgroundColor=default;" parent="1" source="QfohuroKuZxQN4s_sOXS-22" target="QfohuroKuZxQN4s_sOXS-24" edge="1">
          <mxGeometry relative="1" as="geometry">
            <mxPoint x="840" y="60" as="targetPoint" />
          </mxGeometry>
        </mxCell>
        <mxCell id="QfohuroKuZxQN4s_sOXS-30" style="edgeStyle=orthogonalEdgeStyle;rounded=0;orthogonalLoop=1;jettySize=auto;html=1;entryX=0;entryY=0.5;entryDx=0;entryDy=0;labelBackgroundColor=default;fontColor=default;strokeColor=default;" parent="1" source="QfohuroKuZxQN4s_sOXS-22" target="QfohuroKuZxQN4s_sOXS-28" edge="1">
          <mxGeometry relative="1" as="geometry" />
        </mxCell>
        <mxCell id="QfohuroKuZxQN4s_sOXS-22" value="B" style="rounded=0;whiteSpace=wrap;html=1;fontColor=default;strokeColor=default;fillColor=default;labelBackgroundColor=default;" parent="1" vertex="1">
          <mxGeometry x="670" y="30" width="120" height="60" as="geometry" />
        </mxCell>
        <mxCell id="QfohuroKuZxQN4s_sOXS-32" style="edgeStyle=orthogonalEdgeStyle;rounded=0;orthogonalLoop=1;jettySize=auto;html=1;entryX=0;entryY=0.5;entryDx=0;entryDy=0;labelBackgroundColor=default;fontColor=default;strokeColor=default;" parent="1" source="QfohuroKuZxQN4s_sOXS-24" target="QfohuroKuZxQN4s_sOXS-31" edge="1">
          <mxGeometry relative="1" as="geometry" />
        </mxCell>
        <mxCell id="QfohuroKuZxQN4s_sOXS-24" value="C" style="rounded=0;whiteSpace=wrap;html=1;fontColor=default;strokeColor=default;fillColor=default;labelBackgroundColor=default;" parent="1" vertex="1">
          <mxGeometry x="900" y="-60" width="120" height="60" as="geometry" />
        </mxCell>
        <mxCell id="QfohuroKuZxQN4s_sOXS-33" style="edgeStyle=orthogonalEdgeStyle;rounded=0;orthogonalLoop=1;jettySize=auto;html=1;entryX=0;entryY=0.5;entryDx=0;entryDy=0;labelBackgroundColor=default;fontColor=default;strokeColor=default;" parent="1" source="QfohuroKuZxQN4s_sOXS-28" target="QfohuroKuZxQN4s_sOXS-31" edge="1">
          <mxGeometry relative="1" as="geometry" />
        </mxCell>
        <mxCell id="QfohuroKuZxQN4s_sOXS-28" value="D" style="rounded=0;whiteSpace=wrap;html=1;fontColor=default;strokeColor=default;fillColor=default;labelBackgroundColor=default;" parent="1" vertex="1">
          <mxGeometry x="900" y="20" width="120" height="60" as="geometry" />
        </mxCell>
        <mxCell id="QfohuroKuZxQN4s_sOXS-37" style="edgeStyle=orthogonalEdgeStyle;rounded=0;orthogonalLoop=1;jettySize=auto;html=1;entryX=0;entryY=0.5;entryDx=0;entryDy=0;labelBackgroundColor=default;fontColor=default;strokeColor=default;" parent="1" source="QfohuroKuZxQN4s_sOXS-31" target="QfohuroKuZxQN4s_sOXS-34" edge="1">
          <mxGeometry relative="1" as="geometry" />
        </mxCell>
        <mxCell id="QfohuroKuZxQN4s_sOXS-38" style="edgeStyle=orthogonalEdgeStyle;rounded=0;orthogonalLoop=1;jettySize=auto;html=1;entryX=0;entryY=0.5;entryDx=0;entryDy=0;labelBackgroundColor=default;fontColor=default;strokeColor=default;" parent="1" source="QfohuroKuZxQN4s_sOXS-31" target="QfohuroKuZxQN4s_sOXS-35" edge="1">
          <mxGeometry relative="1" as="geometry" />
        </mxCell>
        <mxCell id="QfohuroKuZxQN4s_sOXS-39" style="edgeStyle=orthogonalEdgeStyle;rounded=0;orthogonalLoop=1;jettySize=auto;html=1;entryX=0;entryY=0.5;entryDx=0;entryDy=0;labelBackgroundColor=default;fontColor=default;strokeColor=default;" parent="1" source="QfohuroKuZxQN4s_sOXS-31" target="QfohuroKuZxQN4s_sOXS-36" edge="1">
          <mxGeometry relative="1" as="geometry" />
        </mxCell>
        <mxCell id="QfohuroKuZxQN4s_sOXS-31" value="E" style="rounded=0;whiteSpace=wrap;html=1;fontColor=default;strokeColor=default;fillColor=default;labelBackgroundColor=default;" parent="1" vertex="1">
          <mxGeometry x="1070" y="-30" width="120" height="60" as="geometry" />
        </mxCell>
        <mxCell id="QfohuroKuZxQN4s_sOXS-41" style="edgeStyle=orthogonalEdgeStyle;rounded=0;orthogonalLoop=1;jettySize=auto;html=1;entryX=0;entryY=0.5;entryDx=0;entryDy=0;labelBackgroundColor=default;fontColor=default;strokeColor=default;" parent="1" source="QfohuroKuZxQN4s_sOXS-34" target="QfohuroKuZxQN4s_sOXS-40" edge="1">
          <mxGeometry relative="1" as="geometry" />
        </mxCell>
        <mxCell id="QfohuroKuZxQN4s_sOXS-34" value="F" style="rounded=0;whiteSpace=wrap;html=1;fontColor=default;strokeColor=default;fillColor=default;labelBackgroundColor=default;" parent="1" vertex="1">
          <mxGeometry x="1250" y="-150" width="120" height="60" as="geometry" />
        </mxCell>
        <mxCell id="QfohuroKuZxQN4s_sOXS-42" style="edgeStyle=orthogonalEdgeStyle;rounded=0;orthogonalLoop=1;jettySize=auto;html=1;entryX=0;entryY=0.5;entryDx=0;entryDy=0;labelBackgroundColor=default;fontColor=default;strokeColor=default;" parent="1" source="QfohuroKuZxQN4s_sOXS-35" target="QfohuroKuZxQN4s_sOXS-40" edge="1">
          <mxGeometry relative="1" as="geometry" />
        </mxCell>
        <mxCell id="QfohuroKuZxQN4s_sOXS-35" value="G" style="rounded=0;whiteSpace=wrap;html=1;fontColor=default;strokeColor=default;fillColor=default;labelBackgroundColor=default;" parent="1" vertex="1">
          <mxGeometry x="1250" y="-30" width="120" height="60" as="geometry" />
        </mxCell>
        <mxCell id="QfohuroKuZxQN4s_sOXS-43" style="edgeStyle=orthogonalEdgeStyle;rounded=0;orthogonalLoop=1;jettySize=auto;html=1;entryX=0;entryY=0.5;entryDx=0;entryDy=0;labelBackgroundColor=default;fontColor=default;strokeColor=default;" parent="1" source="QfohuroKuZxQN4s_sOXS-36" target="QfohuroKuZxQN4s_sOXS-40" edge="1">
          <mxGeometry relative="1" as="geometry" />
        </mxCell>
        <mxCell id="QfohuroKuZxQN4s_sOXS-36" value="H" style="rounded=0;whiteSpace=wrap;html=1;fontColor=default;strokeColor=default;fillColor=default;labelBackgroundColor=default;" parent="1" vertex="1">
          <mxGeometry x="1250" y="70" width="120" height="60" as="geometry" />
        </mxCell>
        <mxCell id="QfohuroKuZxQN4s_sOXS-48" style="edgeStyle=orthogonalEdgeStyle;rounded=0;orthogonalLoop=1;jettySize=auto;html=1;entryX=0;entryY=0.5;entryDx=0;entryDy=0;labelBackgroundColor=default;fontColor=default;strokeColor=default;" parent="1" source="QfohuroKuZxQN4s_sOXS-40" target="QfohuroKuZxQN4s_sOXS-47" edge="1">
          <mxGeometry relative="1" as="geometry" />
        </mxCell>
        <mxCell id="QfohuroKuZxQN4s_sOXS-40" value="I" style="rounded=0;whiteSpace=wrap;html=1;fontColor=default;strokeColor=default;fillColor=default;labelBackgroundColor=default;" parent="1" vertex="1">
          <mxGeometry x="1430" y="-30" width="120" height="60" as="geometry" />
        </mxCell>
        <mxCell id="QfohuroKuZxQN4s_sOXS-45" style="edgeStyle=orthogonalEdgeStyle;rounded=0;orthogonalLoop=1;jettySize=auto;html=1;entryX=0;entryY=0.5;entryDx=0;entryDy=0;labelBackgroundColor=default;fontColor=default;strokeColor=default;" parent="1" source="QfohuroKuZxQN4s_sOXS-44" target="QfohuroKuZxQN4s_sOXS-21" edge="1">
          <mxGeometry relative="1" as="geometry" />
        </mxCell>
        <mxCell id="QfohuroKuZxQN4s_sOXS-46" style="edgeStyle=orthogonalEdgeStyle;rounded=0;orthogonalLoop=1;jettySize=auto;html=1;entryX=0;entryY=0.5;entryDx=0;entryDy=0;labelBackgroundColor=default;fontColor=default;strokeColor=default;" parent="1" source="QfohuroKuZxQN4s_sOXS-44" target="QfohuroKuZxQN4s_sOXS-22" edge="1">
          <mxGeometry relative="1" as="geometry" />
        </mxCell>
        <mxCell id="QfohuroKuZxQN4s_sOXS-44" value="StartTask" style="rounded=0;whiteSpace=wrap;html=1;fontColor=default;strokeColor=default;fillColor=default;labelBackgroundColor=default;" parent="1" vertex="1">
          <mxGeometry x="480" y="-9" width="120" height="60" as="geometry" />
        </mxCell>
        <mxCell id="QfohuroKuZxQN4s_sOXS-47" value="EndTask" style="rounded=0;whiteSpace=wrap;html=1;fontColor=default;strokeColor=default;fillColor=default;labelBackgroundColor=default;" parent="1" vertex="1">
          <mxGeometry x="1610" y="-30" width="120" height="60" as="geometry" />
        </mxCell>
        <mxCell id="qDNxjmx3fnLYEtThkMzH-1" value="Task" style="swimlane;fontStyle=1;align=center;verticalAlign=top;childLayout=stackLayout;horizontal=1;startSize=26;horizontalStack=0;resizeParent=1;resizeParentMax=0;resizeLast=0;collapsible=1;marginBottom=0;fontColor=default;strokeColor=default;fillColor=default;" vertex="1" parent="1">
          <mxGeometry x="10" y="470" width="310" height="86" as="geometry" />
        </mxCell>
        <mxCell id="qDNxjmx3fnLYEtThkMzH-2" value="+ mSuccessorList: List&lt;Task&gt; " style="text;strokeColor=none;fillColor=none;align=left;verticalAlign=top;spacingLeft=4;spacingRight=4;overflow=hidden;rotatable=0;points=[[0,0.5],[1,0.5]];portConstraint=eastwest;fontColor=default;" vertex="1" parent="qDNxjmx3fnLYEtThkMzH-1">
          <mxGeometry y="26" width="310" height="26" as="geometry" />
        </mxCell>
        <mxCell id="qDNxjmx3fnLYEtThkMzH-5" value="+ mPredecessorSet: Set&lt;Task&gt; " style="text;strokeColor=none;fillColor=none;align=left;verticalAlign=top;spacingLeft=4;spacingRight=4;overflow=hidden;rotatable=0;points=[[0,0.5],[1,0.5]];portConstraint=eastwest;fontColor=default;" vertex="1" parent="qDNxjmx3fnLYEtThkMzH-1">
          <mxGeometry y="52" width="310" height="26" as="geometry" />
        </mxCell>
        <mxCell id="qDNxjmx3fnLYEtThkMzH-3" value="" style="line;strokeWidth=1;fillColor=none;align=left;verticalAlign=middle;spacingTop=-1;spacingLeft=3;spacingRight=3;rotatable=0;labelPosition=right;points=[];portConstraint=eastwest;fontColor=default;" vertex="1" parent="qDNxjmx3fnLYEtThkMzH-1">
          <mxGeometry y="78" width="310" height="8" as="geometry" />
        </mxCell>
        <mxCell id="qDNxjmx3fnLYEtThkMzH-6" value="A" style="rounded=0;whiteSpace=wrap;html=1;fontColor=default;strokeColor=default;fillColor=default;labelBackgroundColor=default;" vertex="1" parent="1">
          <mxGeometry x="440" y="261" width="120" height="60" as="geometry" />
        </mxCell>
        <mxCell id="qDNxjmx3fnLYEtThkMzH-7" value="C" style="rounded=0;whiteSpace=wrap;html=1;fontColor=default;strokeColor=default;fillColor=default;labelBackgroundColor=default;" vertex="1" parent="1">
          <mxGeometry x="640" y="316.25" width="120" height="20" as="geometry" />
        </mxCell>
        <mxCell id="qDNxjmx3fnLYEtThkMzH-9" value="B" style="rounded=0;whiteSpace=wrap;html=1;fontColor=default;strokeColor=default;fillColor=default;labelBackgroundColor=default;" vertex="1" parent="1">
          <mxGeometry x="440" y="446" width="120" height="60" as="geometry" />
        </mxCell>
        <mxCell id="qDNxjmx3fnLYEtThkMzH-10" value="C" style="rounded=0;whiteSpace=wrap;html=1;fontColor=default;strokeColor=default;fillColor=default;labelBackgroundColor=default;" vertex="1" parent="1">
          <mxGeometry x="640" y="520" width="120" height="23" as="geometry" />
        </mxCell>
        <mxCell id="qDNxjmx3fnLYEtThkMzH-11" value="C" style="rounded=0;whiteSpace=wrap;html=1;fontColor=default;strokeColor=default;fillColor=default;labelBackgroundColor=default;" vertex="1" parent="1">
          <mxGeometry x="440" y="680" width="120" height="60" as="geometry" />
        </mxCell>
        <mxCell id="qDNxjmx3fnLYEtThkMzH-12" value="A" style="rounded=0;whiteSpace=wrap;html=1;fontColor=default;strokeColor=default;fillColor=default;labelBackgroundColor=default;" vertex="1" parent="1">
          <mxGeometry x="640" y="670" width="120" height="20" as="geometry" />
        </mxCell>
        <mxCell id="qDNxjmx3fnLYEtThkMzH-13" value="B" style="rounded=0;whiteSpace=wrap;html=1;fontColor=default;strokeColor=default;fillColor=default;labelBackgroundColor=default;" vertex="1" parent="1">
          <mxGeometry x="827" y="670" width="120" height="20" as="geometry" />
        </mxCell>
        <mxCell id="qDNxjmx3fnLYEtThkMzH-16" value="D" style="rounded=0;whiteSpace=wrap;html=1;fontColor=default;strokeColor=default;fillColor=default;labelBackgroundColor=default;" vertex="1" parent="1">
          <mxGeometry x="850" y="313.75" width="120" height="22.5" as="geometry" />
        </mxCell>
        <mxCell id="qDNxjmx3fnLYEtThkMzH-18" value="D" style="rounded=0;whiteSpace=wrap;html=1;fontColor=default;strokeColor=default;fillColor=default;labelBackgroundColor=default;" vertex="1" parent="1">
          <mxGeometry x="850" y="522" width="120" height="19" as="geometry" />
        </mxCell>
        <mxCell id="qDNxjmx3fnLYEtThkMzH-20" value="D" style="rounded=0;whiteSpace=wrap;html=1;fontColor=default;strokeColor=default;fillColor=default;labelBackgroundColor=default;" vertex="1" parent="1">
          <mxGeometry x="440" y="790" width="120" height="60" as="geometry" />
        </mxCell>
        <mxCell id="qDNxjmx3fnLYEtThkMzH-21" value="A" style="rounded=0;whiteSpace=wrap;html=1;fontColor=default;strokeColor=default;fillColor=default;labelBackgroundColor=default;" vertex="1" parent="1">
          <mxGeometry x="640" y="790" width="120" height="20" as="geometry" />
        </mxCell>
        <mxCell id="qDNxjmx3fnLYEtThkMzH-22" value="B" style="rounded=0;whiteSpace=wrap;html=1;fontColor=default;strokeColor=default;fillColor=default;labelBackgroundColor=default;" vertex="1" parent="1">
          <mxGeometry x="840" y="790" width="120" height="20" as="geometry" />
        </mxCell>
        <mxCell id="qDNxjmx3fnLYEtThkMzH-23" value="后继节点" style="text;html=1;strokeColor=none;fillColor=none;align=center;verticalAlign=middle;whiteSpace=wrap;rounded=0;" vertex="1" parent="1">
          <mxGeometry x="480" y="310" width="60" height="30" as="geometry" />
        </mxCell>
        <mxCell id="qDNxjmx3fnLYEtThkMzH-24" value="后继节点" style="text;html=1;strokeColor=none;fillColor=none;align=center;verticalAlign=middle;whiteSpace=wrap;rounded=0;" vertex="1" parent="1">
          <mxGeometry x="480" y="520" width="60" height="30" as="geometry" />
        </mxCell>
        <mxCell id="qDNxjmx3fnLYEtThkMzH-25" value="前驱节点" style="text;html=1;strokeColor=none;fillColor=none;align=center;verticalAlign=middle;whiteSpace=wrap;rounded=0;" vertex="1" parent="1">
          <mxGeometry x="480" y="650" width="60" height="30" as="geometry" />
        </mxCell>
        <mxCell id="qDNxjmx3fnLYEtThkMzH-26" value="前驱节点" style="text;html=1;strokeColor=none;fillColor=none;align=center;verticalAlign=middle;whiteSpace=wrap;rounded=0;" vertex="1" parent="1">
          <mxGeometry x="480" y="780" width="60" height="30" as="geometry" />
        </mxCell>
        <mxCell id="qDNxjmx3fnLYEtThkMzH-27" value="E" style="rounded=0;whiteSpace=wrap;html=1;fontColor=default;strokeColor=default;fillColor=default;labelBackgroundColor=default;" vertex="1" parent="1">
          <mxGeometry x="640" y="730" width="120" height="20" as="geometry" />
        </mxCell>
        <mxCell id="qDNxjmx3fnLYEtThkMzH-28" value="E" style="rounded=0;whiteSpace=wrap;html=1;fontColor=default;strokeColor=default;fillColor=default;labelBackgroundColor=default;" vertex="1" parent="1">
          <mxGeometry x="640" y="840" width="120" height="20" as="geometry" />
        </mxCell>
        <mxCell id="qDNxjmx3fnLYEtThkMzH-29" value="后继节点" style="text;html=1;strokeColor=none;fillColor=none;align=center;verticalAlign=middle;whiteSpace=wrap;rounded=0;" vertex="1" parent="1">
          <mxGeometry x="480" y="835" width="60" height="30" as="geometry" />
        </mxCell>
        <mxCell id="qDNxjmx3fnLYEtThkMzH-30" style="edgeStyle=orthogonalEdgeStyle;rounded=0;orthogonalLoop=1;jettySize=auto;html=1;exitX=0.5;exitY=1;exitDx=0;exitDy=0;" edge="1" parent="1" source="qDNxjmx3fnLYEtThkMzH-16" target="qDNxjmx3fnLYEtThkMzH-16">
          <mxGeometry relative="1" as="geometry" />
        </mxCell>
        <mxCell id="qDNxjmx3fnLYEtThkMzH-31" value="后继节点" style="text;html=1;strokeColor=none;fillColor=none;align=center;verticalAlign=middle;whiteSpace=wrap;rounded=0;" vertex="1" parent="1">
          <mxGeometry x="480" y="725" width="60" height="30" as="geometry" />
        </mxCell>
        <mxCell id="qDNxjmx3fnLYEtThkMzH-32" value="E" style="rounded=0;whiteSpace=wrap;html=1;fontColor=default;strokeColor=default;fillColor=default;labelBackgroundColor=default;" vertex="1" parent="1">
          <mxGeometry x="440" y="910" width="120" height="60" as="geometry" />
        </mxCell>
        <mxCell id="qDNxjmx3fnLYEtThkMzH-33" value="前驱节点" style="text;html=1;strokeColor=none;fillColor=none;align=center;verticalAlign=middle;whiteSpace=wrap;rounded=0;" vertex="1" parent="1">
          <mxGeometry x="480" y="240" width="60" height="30" as="geometry" />
        </mxCell>
        <mxCell id="qDNxjmx3fnLYEtThkMzH-34" value="前驱节点" style="text;html=1;strokeColor=none;fillColor=none;align=center;verticalAlign=middle;whiteSpace=wrap;rounded=0;" vertex="1" parent="1">
          <mxGeometry x="470" y="430" width="60" height="30" as="geometry" />
        </mxCell>
        <mxCell id="qDNxjmx3fnLYEtThkMzH-35" value="StartTask" style="rounded=0;whiteSpace=wrap;html=1;fontColor=default;strokeColor=default;fillColor=default;labelBackgroundColor=default;" vertex="1" parent="1">
          <mxGeometry x="640" y="245" width="120" height="20" as="geometry" />
        </mxCell>
        <mxCell id="qDNxjmx3fnLYEtThkMzH-36" value="StartTask" style="rounded=0;whiteSpace=wrap;html=1;fontColor=default;strokeColor=default;fillColor=default;labelBackgroundColor=default;" vertex="1" parent="1">
          <mxGeometry x="640" y="435" width="120" height="20" as="geometry" />
        </mxCell>
        <mxCell id="qDNxjmx3fnLYEtThkMzH-38" value="StartTask" style="rounded=0;whiteSpace=wrap;html=1;fontColor=default;strokeColor=default;fillColor=default;labelBackgroundColor=default;" vertex="1" parent="1">
          <mxGeometry x="440" y="140" width="120" height="60" as="geometry" />
        </mxCell>
        <mxCell id="qDNxjmx3fnLYEtThkMzH-39" value="后继节点" style="text;html=1;strokeColor=none;fillColor=none;align=center;verticalAlign=middle;whiteSpace=wrap;rounded=0;" vertex="1" parent="1">
          <mxGeometry x="470" y="180" width="60" height="30" as="geometry" />
        </mxCell>
        <mxCell id="qDNxjmx3fnLYEtThkMzH-40" value="A" style="rounded=0;whiteSpace=wrap;html=1;fontColor=default;strokeColor=default;fillColor=default;labelBackgroundColor=default;" vertex="1" parent="1">
          <mxGeometry x="640" y="183.25" width="120" height="20" as="geometry" />
        </mxCell>
        <mxCell id="qDNxjmx3fnLYEtThkMzH-41" value="B" style="rounded=0;whiteSpace=wrap;html=1;fontColor=default;strokeColor=default;fillColor=default;labelBackgroundColor=default;" vertex="1" parent="1">
          <mxGeometry x="840" y="183.25" width="120" height="22.5" as="geometry" />
        </mxCell>
        <mxCell id="qDNxjmx3fnLYEtThkMzH-42" style="edgeStyle=orthogonalEdgeStyle;rounded=0;orthogonalLoop=1;jettySize=auto;html=1;exitX=0.5;exitY=1;exitDx=0;exitDy=0;" edge="1" parent="1" source="qDNxjmx3fnLYEtThkMzH-41" target="qDNxjmx3fnLYEtThkMzH-41">
          <mxGeometry relative="1" as="geometry" />
        </mxCell>
      </root>
    </mxGraphModel>
  </diagram>
</mxfile>
